<?xml version="1.0" encoding="UTF-8"?>
<!DOCTYPE svg PUBLIC "-//W3C//DTD SVG 1.1//EN" "http://www.w3.org/Graphics/SVG/1.1/DTD/svg11.dtd">
<svg xmlns="http://www.w3.org/2000/svg" version="1.1" width="863px" height="233px" style="shape-rendering:geometricPrecision; text-rendering:geometricPrecision; image-rendering:optimizeQuality; fill-rule:evenodd; clip-rule:evenodd" xmlns:xlink="http://www.w3.org/1999/xlink">
<g><path style="opacity:0.988" fill="#14161c" d="M 221.5,101.5 C 222.143,109.15 222.477,116.817 222.5,124.5C 222.068,125.71 221.401,126.71 220.5,127.5C 194.825,127.167 169.158,127.5 143.5,128.5C 143.624,129.107 143.957,129.44 144.5,129.5C 146.617,139.891 152.617,147.057 162.5,151C 168.765,152.484 175.098,152.818 181.5,152C 184.599,151.613 187.266,150.446 189.5,148.5C 189.833,148.5 190.167,148.5 190.5,148.5C 192.027,148.573 193.027,147.906 193.5,146.5C 196.198,146.155 198.198,144.822 199.5,142.5C 201.137,141.782 202.803,141.616 204.5,142C 209.167,146.667 213.833,151.333 218.5,156C 202.697,172.464 183.364,178.797 160.5,175C 136.541,170.206 121.541,156.039 115.5,132.5C 115.5,132.167 115.5,131.833 115.5,131.5C 114.2,123.513 114.2,115.513 115.5,107.5C 115.5,106.167 115.5,104.833 115.5,103.5C 116.458,101.698 117.125,99.6976 117.5,97.5C 118.11,96.609 118.443,95.609 118.5,94.5C 120.008,92.8185 121.008,90.8185 121.5,88.5C 122.488,87.205 123.488,85.8717 124.5,84.5C 124.5,84.1667 124.5,83.8333 124.5,83.5C 125.833,82.8333 126.833,81.8333 127.5,80.5C 127.5,80.1667 127.5,79.8333 127.5,79.5C 130.109,78.5569 132.109,76.8903 133.5,74.5C 133.5,74.1667 133.5,73.8333 133.5,73.5C 138.37,70.2338 143.37,67.2338 148.5,64.5C 151.067,64.2785 153.401,63.6118 155.5,62.5C 155.833,62.5 156.167,62.5 156.5,62.5C 176.962,58.4917 194.795,63.4917 210,77.5C 216.248,84.33 220.081,92.33 221.5,101.5 Z M 159.5,108.5 C 156.833,108.5 154.167,108.5 151.5,108.5C 151.179,106.952 150.179,106.285 148.5,106.5C 148.5,104.833 148.5,103.167 148.5,101.5C 149.5,101.5 150.5,101.5 151.5,101.5C 151.5,100.167 151.5,98.8333 151.5,97.5C 152.5,97.5 153.5,97.5 154.5,97.5C 154.5,96.1667 154.5,94.8333 154.5,93.5C 159.429,90.3327 164.762,87.9994 170.5,86.5C 176.75,86.5764 182.25,88.5764 187,92.5C 189.169,96.172 191.336,99.8387 193.5,103.5C 192.099,105.956 189.932,107.289 187,107.5C 178.858,106.41 170.692,106.244 162.5,107C 161.263,107.232 160.263,107.732 159.5,108.5 Z"/></g>
<g><path style="opacity:0.99" fill="#14161c" d="M 235.5,164.5 C 235.5,163.5 235.5,162.5 235.5,161.5C 239.546,156.786 243.212,151.786 246.5,146.5C 247.609,146.443 248.609,146.11 249.5,145.5C 258.863,152.376 269.196,155.376 280.5,154.5C 286.61,154.791 290.61,152.125 292.5,146.5C 292.5,146.167 292.5,145.833 292.5,145.5C 294.037,141.76 293.037,138.593 289.5,136C 279.989,131.941 270.322,128.274 260.5,125C 241.267,118.037 233.933,104.537 238.5,84.5C 238.5,84.1667 238.5,83.8333 238.5,83.5C 239.89,82.1007 240.89,80.4341 241.5,78.5C 242.488,77.205 243.488,75.8717 244.5,74.5C 246.457,72.5086 248.457,70.5086 250.5,68.5C 252.027,68.573 253.027,67.9063 253.5,66.5C 275.552,58.4876 296.885,60.1543 317.5,71.5C 318.583,72.365 318.749,73.365 318,74.5C 314.622,79.4218 311.122,84.2551 307.5,89C 305.833,89.6667 304.167,89.6667 302.5,89C 292.691,83.7026 282.357,82.0359 271.5,84C 263.841,89.4714 263.507,95.4714 270.5,102C 281.412,106.193 292.412,110.193 303.5,114C 321.683,124.868 326.183,140.034 317,159.5C 306.695,171.447 293.528,177.113 277.5,176.5C 262.235,176.743 248.235,172.743 235.5,164.5 Z"/></g>
<g><path style="opacity:0.989" fill="#14161c" d="M 724.5,150.5 C 726.553,150.598 728.22,149.931 729.5,148.5C 729.833,148.5 730.167,148.5 730.5,148.5C 732.027,148.573 733.027,147.906 733.5,146.5C 736.198,146.155 738.198,144.822 739.5,142.5C 741.137,141.782 742.803,141.616 744.5,142C 749.167,146.667 753.833,151.333 758.5,156C 743.416,171.474 725.082,177.807 703.5,175C 678.328,171.654 662.328,157.821 655.5,133.5C 654.623,124.867 654.289,116.2 654.5,107.5C 655.461,105.735 655.795,103.735 655.5,101.5C 656.736,99.351 657.736,97.0177 658.5,94.5C 658.5,94.1667 658.5,93.8333 658.5,93.5C 660.008,91.8185 661.008,89.8185 661.5,87.5C 664.25,83.6892 667.25,80.0225 670.5,76.5C 675.883,71.4823 681.883,67.4823 688.5,64.5C 703.67,60.0886 718.67,60.5886 733.5,66C 750.841,74.8174 760.675,88.984 763,108.5C 763.667,114.167 763.667,119.833 763,125.5C 762.5,126 762,126.5 761.5,127C 735.835,127.5 710.169,127.667 684.5,127.5C 685.861,140.37 692.861,148.537 705.5,152C 710.5,152.667 715.5,152.667 720.5,152C 722.058,151.79 723.391,151.29 724.5,150.5 Z M 733.5,101.5 C 733.5,102.167 733.5,102.833 733.5,103.5C 733.5,104.5 733.5,105.5 733.5,106.5C 723.161,106.334 712.828,106.5 702.5,107C 701.584,107.278 700.918,107.778 700.5,108.5C 697.5,108.5 694.5,108.5 691.5,108.5C 691.179,106.952 690.179,106.285 688.5,106.5C 689.172,103.356 690.172,100.356 691.5,97.5C 692.5,97.5 693.5,97.5 694.5,97.5C 694.5,96.1667 694.5,94.8333 694.5,93.5C 699.719,90.3619 705.219,87.6953 711,85.5C 716.754,86.813 722.254,88.813 727.5,91.5C 728.713,94.4081 729.879,97.4081 731,100.5C 731.671,101.252 732.504,101.586 733.5,101.5 Z"/></g>
<g><path style="opacity:0.173" fill="#f4f4f4" d="M 71.5,73.5 C 70.5,74.8333 69.5,76.1667 68.5,77.5C 67.8333,75.5 67.1667,73.5 66.5,71.5C 66.747,68.495 65.747,65.995 63.5,64C 55.5069,63.5003 47.5069,63.3336 39.5,63.5C 43.0719,62.0973 46.9053,61.4307 51,61.5C 56.1806,61.8534 61.3473,62.3534 66.5,63C 67.4231,65.0408 67.7564,67.2075 67.5,69.5C 68.5,69.5 69.5,69.5 70.5,69.5C 70.2322,71.099 70.5655,72.4324 71.5,73.5 Z"/></g>
<g><path style="opacity:0.004" fill="#eceded" d="M 155.5,62.5 C 153.401,63.6118 151.067,64.2785 148.5,64.5C 148.611,63.8826 148.944,63.3826 149.5,63C 151.473,62.5045 153.473,62.3379 155.5,62.5 Z"/></g>
<g><path style="opacity:0.539" fill="#f7f8f8" d="M 403.5,145.5 C 398.903,149.632 393.403,151.632 387,151.5C 378.461,151.235 372.461,147.235 369,139.5C 367.528,114.231 367.028,88.8981 367.5,63.5C 357.833,63.5 348.167,63.5 338.5,63.5C 345.984,62.0448 353.651,61.0448 361.5,60.5C 364.399,61.6416 367.399,62.3083 370.5,62.5C 370.167,86.8425 370.5,111.176 371.5,135.5C 372.856,139.325 374.522,142.991 376.5,146.5C 379.798,147.812 383.131,149.145 386.5,150.5C 392.333,149.237 397.999,147.57 403.5,145.5 Z"/></g>
<g><path style="opacity:0.057" fill="#eeefef" d="M 498.5,70.5 C 496.215,72.1182 494.215,74.1182 492.5,76.5C 491.941,72.0612 490.608,67.8946 488.5,64C 480.833,63.3333 473.167,63.3333 465.5,64C 463.686,66.4815 463.02,69.3148 463.5,72.5C 462.504,72.5858 461.671,72.2524 461,71.5C 459.542,65.952 461.708,62.7853 467.5,62C 472.691,61.7034 477.857,61.2034 483,60.5C 486.658,61.5507 490.158,62.884 493.5,64.5C 492.887,68.5123 494.554,70.5123 498.5,70.5 Z"/></g>
<g><path style="opacity:0.988" fill="#14161c" d="M 565.5,72.5 C 566.833,71.8333 567.833,70.8333 568.5,69.5C 571.669,68.0834 574.669,66.4168 577.5,64.5C 580.01,64.0733 582.343,63.4067 584.5,62.5C 611.791,57.3758 628.957,68.0425 636,94.5C 636.5,120.831 636.667,147.165 636.5,173.5C 626.833,173.5 617.167,173.5 607.5,173.5C 607.5,152.5 607.5,131.5 607.5,110.5C 606.868,93.0392 597.868,85.5392 580.5,88C 573.091,90.4084 567.924,95.2417 565,102.5C 564.5,126.164 564.333,149.831 564.5,173.5C 554.833,173.5 545.167,173.5 535.5,173.5C 535.5,152.5 535.5,131.5 535.5,110.5C 534.41,91.2714 524.41,84.1048 505.5,89C 499.582,91.917 495.415,96.417 493,102.5C 492.5,126.164 492.333,149.831 492.5,173.5C 482.833,173.5 473.167,173.5 463.5,173.5C 463.5,173.167 463.5,172.833 463.5,172.5C 463.5,170.5 463.5,168.5 463.5,166.5C 463.5,135.167 463.5,103.833 463.5,72.5C 463.02,69.3148 463.686,66.4815 465.5,64C 473.167,63.3333 480.833,63.3333 488.5,64C 490.608,67.8946 491.941,72.0612 492.5,76.5C 494.215,74.1182 496.215,72.1182 498.5,70.5C 501.326,67.6774 504.66,65.6774 508.5,64.5C 510.153,64.3404 511.486,63.6737 512.5,62.5C 525.202,59.8675 537.202,61.7008 548.5,68C 552.393,71.39 555.727,75.2233 558.5,79.5C 561.188,77.4789 563.521,75.1456 565.5,72.5 Z"/></g>
<g><path style="opacity:0.116" fill="#e6e7e7" d="M 565.5,72.5 C 563.521,75.1456 561.188,77.4789 558.5,79.5C 555.727,75.2233 552.393,71.39 548.5,68C 537.202,61.7008 525.202,59.8675 512.5,62.5C 512.918,61.7784 513.584,61.2784 514.5,61C 526.269,59.7719 537.769,60.9386 549,64.5C 552.169,67.972 555.669,71.1387 559.5,74C 561.689,74.322 563.689,73.822 565.5,72.5 Z"/></g>
<g><path style="opacity:0.012" fill="#d3d4d5" d="M 584.5,62.5 C 582.343,63.4067 580.01,64.0733 577.5,64.5C 577.611,63.8826 577.944,63.3826 578.5,63C 580.473,62.5045 582.473,62.3379 584.5,62.5 Z"/></g>
<g><path style="opacity:0.106" fill="#b8b9bc" d="M 512.5,62.5 C 511.486,63.6737 510.153,64.3404 508.5,64.5C 509.287,62.8958 510.62,62.2291 512.5,62.5 Z"/></g>
<g><path style="opacity:0.321" fill="#f5f5f5" d="M 189.5,148.5 C 187.266,150.446 184.599,151.613 181.5,152C 175.098,152.818 168.765,152.484 162.5,151C 152.617,147.057 146.617,139.891 144.5,129.5C 169.833,128.833 195.167,128.167 220.5,127.5C 221.401,126.71 222.068,125.71 222.5,124.5C 223.872,116.777 223.539,109.111 221.5,101.5C 220.081,92.33 216.248,84.33 210,77.5C 194.795,63.4917 176.962,58.4917 156.5,62.5C 156.918,61.7784 157.584,61.2784 158.5,61C 172.664,59.1513 186.331,60.6513 199.5,65.5C 202.279,67.6918 205.279,69.3585 208.5,70.5C 208.5,71.5 208.5,72.5 208.5,73.5C 209.5,73.5 210.5,73.5 211.5,73.5C 211.5,74.5 211.5,75.5 211.5,76.5C 212.5,76.5 213.5,76.5 214.5,76.5C 214.5,77.5 214.5,78.5 214.5,79.5C 215.5,79.5 216.5,79.5 217.5,79.5C 217.343,80.8734 217.51,82.2068 218,83.5C 219.667,86.1667 221.333,88.8333 223,91.5C 223.176,94.8818 223.676,98.2152 224.5,101.5C 225.086,101.709 225.586,102.043 226,102.5C 226.667,110.833 226.667,119.167 226,127.5C 224.294,128.308 223.461,129.641 223.5,131.5C 198.378,130.892 173.378,131.559 148.5,133.5C 148.5,134.5 148.5,135.5 148.5,136.5C 149.5,136.5 150.5,136.5 151.5,136.5C 151.5,137.833 151.5,139.167 151.5,140.5C 155.987,143.8 160.653,146.967 165.5,150C 173.644,151.813 181.644,151.313 189.5,148.5 Z"/></g>
<g><path style="opacity:0.008" fill="#e1e1e2" d="M 577.5,64.5 C 574.669,66.4168 571.669,68.0834 568.5,69.5C 570.24,65.7948 573.24,64.1281 577.5,64.5 Z"/></g>
<g><path style="opacity:0.265" fill="#f5f5f6" d="M 607.5,173.5 C 617.167,173.5 626.833,173.5 636.5,173.5C 636.667,147.165 636.5,120.831 636,94.5C 628.957,68.0425 611.791,57.3758 584.5,62.5C 584.918,61.7784 585.584,61.2784 586.5,61C 601.751,58.6062 615.751,61.4395 628.5,69.5C 628.5,70.5 628.5,71.5 628.5,72.5C 629.5,72.5 630.5,72.5 631.5,72.5C 631.343,73.8734 631.51,75.2068 632,76.5C 633.667,78.8333 635.333,81.1667 637,83.5C 637.498,86.8168 637.665,90.1501 637.5,93.5C 638.5,93.5 639.5,93.5 640.5,93.5C 640.5,120.833 640.5,148.167 640.5,175.5C 630.629,177.673 620.629,178.006 610.5,176.5C 609.007,175.859 608.007,174.859 607.5,173.5 Z"/></g>
<g><path style="opacity:0.325" fill="#e9e9ea" d="M 724.5,150.5 C 723.391,151.29 722.058,151.79 720.5,152C 715.5,152.667 710.5,152.667 705.5,152C 692.861,148.537 685.861,140.37 684.5,127.5C 710.169,127.667 735.835,127.5 761.5,127C 762,126.5 762.5,126 763,125.5C 763.667,119.833 763.667,114.167 763,108.5C 760.675,88.984 750.841,74.8174 733.5,66C 718.67,60.5886 703.67,60.0886 688.5,64.5C 688.611,63.8826 688.944,63.3826 689.5,63C 710.321,57.5836 729.988,60.0836 748.5,70.5C 748.5,71.5 748.5,72.5 748.5,73.5C 749.5,73.5 750.5,73.5 751.5,73.5C 751.5,74.5 751.5,75.5 751.5,76.5C 752.5,76.5 753.5,76.5 754.5,76.5C 754.5,77.8333 754.5,79.1667 754.5,80.5C 755.5,80.5 756.5,80.5 757.5,80.5C 757.5,82.1667 757.5,83.8333 757.5,85.5C 758.5,85.5 759.5,85.5 760.5,85.5C 762.556,90.7993 763.89,96.466 764.5,102.5C 765.086,102.709 765.586,103.043 766,103.5C 766.5,112.16 766.666,120.827 766.5,129.5C 741.62,131.275 716.62,132.108 691.5,132C 690.272,132.779 689.272,133.779 688.5,135C 696.718,148.259 708.718,153.425 724.5,150.5 Z"/></g>
<g><path style="opacity:0.994" fill="#14161c" d="M 39.5,63.5 C 47.5069,63.3336 55.5069,63.5003 63.5,64C 65.747,65.995 66.747,68.495 66.5,71.5C 66.1924,73.924 66.5258,76.2573 67.5,78.5C 68.1067,78.3764 68.44,78.0431 68.5,77.5C 69.5,76.1667 70.5,74.8333 71.5,73.5C 73.1667,72.1667 74.8333,70.8333 76.5,69.5C 80.2397,66.6333 84.2397,64.2999 88.5,62.5C 89.5,62.5 90.5,62.5 91.5,62.5C 97.4984,60.8726 103.332,61.206 109,63.5C 108.998,71.5275 108.331,79.5275 107,87.5C 103.412,88.4147 99.745,88.4147 96,87.5C 82.9878,87.5165 73.9878,93.5165 69,105.5C 67.5535,128.122 67.0535,150.789 67.5,173.5C 58.1667,173.5 48.8333,173.5 39.5,173.5C 39.5,136.833 39.5,100.167 39.5,63.5 Z"/></g>
<g><path style="opacity:0.027" fill="#dedfdf" d="M 148.5,64.5 C 143.37,67.2338 138.37,70.2338 133.5,73.5C 137.201,68.4913 142.201,65.4913 148.5,64.5 Z"/></g>
<g><path style="opacity:0.004" fill="#d7d8d8" d="M 88.5,62.5 C 84.2397,64.2999 80.2397,66.6333 76.5,69.5C 79.221,65.1342 83.221,62.8009 88.5,62.5 Z"/></g>
<g><path style="opacity:0.11" fill="#b4b6b9" d="M 253.5,66.5 C 253.027,67.9063 252.027,68.573 250.5,68.5C 250.973,67.0937 251.973,66.427 253.5,66.5 Z"/></g>
<g><path style="opacity:0.012" fill="#d9dada" d="M 688.5,64.5 C 681.883,67.4823 675.883,71.4823 670.5,76.5C 670.33,75.1779 670.663,74.0113 671.5,73C 675.5,70.3333 679.5,67.6667 683.5,65C 685.134,64.5065 686.801,64.3398 688.5,64.5 Z"/></g>
<g><path style="opacity:0.039" fill="#c1c3c4" d="M 568.5,69.5 C 567.833,70.8333 566.833,71.8333 565.5,72.5C 565.5,70.5 566.5,69.5 568.5,69.5 Z"/></g>
<g><path style="opacity:0.02" fill="#cfcfd0" d="M 250.5,68.5 C 248.457,70.5086 246.457,72.5086 244.5,74.5C 245.065,71.1916 247.065,69.1916 250.5,68.5 Z"/></g>
<g><path style="opacity:0.106" fill="#8e8f93" d="M 133.5,74.5 C 132.109,76.8903 130.109,78.5569 127.5,79.5C 128.865,77.1402 130.865,75.4735 133.5,74.5 Z"/></g>
<g><path style="opacity:0.031" fill="#d8d9da" d="M 244.5,74.5 C 243.488,75.8717 242.488,77.205 241.5,78.5C 241.088,76.0274 242.088,74.6941 244.5,74.5 Z"/></g>
<g><path style="opacity:0.082" fill="#dadadb" d="M 241.5,78.5 C 240.89,80.4341 239.89,82.1007 238.5,83.5C 237.916,80.715 238.916,79.0483 241.5,78.5 Z"/></g>
<g><path style="opacity:0.027" fill="#c1c2c3" d="M 127.5,80.5 C 126.833,81.8333 125.833,82.8333 124.5,83.5C 124.5,81.5 125.5,80.5 127.5,80.5 Z"/></g>
<g><path style="opacity:0.415" fill="#f2f2f2" d="M 159.5,108.5 C 160.263,107.732 161.263,107.232 162.5,107C 170.692,106.244 178.858,106.41 187,107.5C 189.932,107.289 192.099,105.956 193.5,103.5C 191.336,99.8387 189.169,96.172 187,92.5C 182.25,88.5764 176.75,86.5764 170.5,86.5C 164.762,87.9994 159.429,90.3327 154.5,93.5C 154.5,94.8333 154.5,96.1667 154.5,97.5C 153.5,97.5 152.5,97.5 151.5,97.5C 151.5,98.8333 151.5,100.167 151.5,101.5C 150.5,101.5 149.5,101.5 148.5,101.5C 148.5,103.167 148.5,104.833 148.5,106.5C 150.179,106.285 151.179,106.952 151.5,108.5C 149.167,108.5 146.833,108.5 144.5,108.5C 145.778,93.3885 153.945,85.0552 169,83.5C 185.295,83.9624 193.795,92.2957 194.5,108.5C 182.833,108.5 171.167,108.5 159.5,108.5 Z M 159.5,108.5 C 156.833,108.5 154.167,108.5 151.5,108.5C 151.179,106.952 150.179,106.285 148.5,106.5C 148.5,104.833 148.5,103.167 148.5,101.5C 149.5,101.5 150.5,101.5 151.5,101.5C 151.5,100.167 151.5,98.8333 151.5,97.5C 152.5,97.5 153.5,97.5 154.5,97.5C 154.5,96.1667 154.5,94.8333 154.5,93.5C 159.429,90.3327 164.762,87.9994 170.5,86.5C 176.75,86.5764 182.25,88.5764 187,92.5C 189.169,96.172 191.336,99.8387 193.5,103.5C 192.099,105.956 189.932,107.289 187,107.5C 178.858,106.41 170.692,106.244 162.5,107C 161.263,107.232 160.263,107.732 159.5,108.5 Z"/></g>
<g><path style="opacity:0.051" fill="#d8d8d9" d="M 670.5,76.5 C 667.25,80.0225 664.25,83.6892 661.5,87.5C 661.343,86.1266 661.51,84.7932 662,83.5C 664.187,80.3309 667.02,77.9975 670.5,76.5 Z"/></g>
<g><path style="opacity:0.41" fill="#f3f3f3" d="M 733.5,101.5 C 732.504,101.586 731.671,101.252 731,100.5C 729.879,97.4081 728.713,94.4081 727.5,91.5C 722.254,88.813 716.754,86.813 711,85.5C 705.219,87.6953 699.719,90.3619 694.5,93.5C 694.5,94.8333 694.5,96.1667 694.5,97.5C 693.5,97.5 692.5,97.5 691.5,97.5C 690.172,100.356 689.172,103.356 688.5,106.5C 690.179,106.285 691.179,106.952 691.5,108.5C 689.167,108.5 686.833,108.5 684.5,108.5C 686.859,90.3139 697.192,82.1472 715.5,84C 725.313,85.9808 731.313,91.8141 733.5,101.5 Z"/></g>
<g><path style="opacity:0.027" fill="#c6c7c8" d="M 124.5,84.5 C 123.488,85.8717 122.488,87.205 121.5,88.5C 121.088,86.0274 122.088,84.6941 124.5,84.5 Z"/></g>
<g><path style="opacity:0.369" fill="#f2f2f2" d="M 535.5,110.5 C 534.25,110.423 533.417,109.756 533,108.5C 532.667,105.167 532.333,101.833 532,98.5C 527.623,93.9102 522.29,91.5768 516,91.5C 510.237,91.9247 504.737,93.2581 499.5,95.5C 499.5,96.8333 499.5,98.1667 499.5,99.5C 498.5,99.5 497.5,99.5 496.5,99.5C 496.5,124.833 496.5,150.167 496.5,175.5C 486.645,177.506 476.645,178.006 466.5,177C 464.574,176.578 463.574,175.411 463.5,173.5C 473.167,173.5 482.833,173.5 492.5,173.5C 492.333,149.831 492.5,126.164 493,102.5C 495.415,96.417 499.582,91.917 505.5,89C 524.41,84.1048 534.41,91.2714 535.5,110.5 Z"/></g>
<g><path style="opacity:0.245" fill="#f5f5f6" d="M 607.5,110.5 C 606.542,110.047 605.708,109.381 605,108.5C 605.365,101.039 602.198,95.7058 595.5,92.5C 590.5,91.1667 585.5,91.1667 580.5,92.5C 577.721,94.6918 574.721,96.3585 571.5,97.5C 571.778,99.3464 571.111,100.68 569.5,101.5C 568.5,126.158 568.167,150.824 568.5,175.5C 558.629,177.673 548.629,178.006 538.5,176.5C 537.007,175.859 536.007,174.859 535.5,173.5C 545.167,173.5 554.833,173.5 564.5,173.5C 564.333,149.831 564.5,126.164 565,102.5C 567.924,95.2417 573.091,90.4084 580.5,88C 597.868,85.5392 606.868,93.0392 607.5,110.5 Z"/></g>
<g><path style="opacity:0.353" fill="#e3e3e4" d="M 39.5,63.5 C 39.5,100.167 39.5,136.833 39.5,173.5C 48.8333,173.5 58.1667,173.5 67.5,173.5C 67.0535,150.789 67.5535,128.122 69,105.5C 73.9878,93.5165 82.9878,87.5165 96,87.5C 99.745,88.4147 103.412,88.4147 107,87.5C 108.331,79.5275 108.998,71.5275 109,63.5C 103.332,61.206 97.4984,60.8726 91.5,62.5C 91.6107,61.8826 91.944,61.3826 92.5,61C 99.3282,60.0899 105.995,60.5899 112.5,62.5C 112.817,71.4178 112.484,80.2511 111.5,89C 103.951,90.7842 96.284,91.9509 88.5,92.5C 84.7117,94.6589 80.7117,96.3255 76.5,97.5C 76.5,98.8333 76.5,100.167 76.5,101.5C 75.5,101.5 74.5,101.5 73.5,101.5C 73.5,104.833 73.5,108.167 73.5,111.5C 72.5,111.5 71.5,111.5 70.5,111.5C 70.5,132.833 70.5,154.167 70.5,175.5C 59.5,178.167 48.5,178.167 37.5,175.5C 36.8395,137.818 37.5062,100.485 39.5,63.5 Z"/></g>
<g><path style="opacity:0.976" fill="#636468" d="M 66.5,71.5 C 67.1667,73.5 67.8333,75.5 68.5,77.5C 68.44,78.0431 68.1067,78.3764 67.5,78.5C 66.5258,76.2573 66.1924,73.924 66.5,71.5 Z"/></g>
<g><path style="opacity:0.043" fill="#e4e4e5" d="M 661.5,87.5 C 661.008,89.8185 660.008,91.8185 658.5,93.5C 658.34,91.8008 658.506,90.1341 659,88.5C 659.671,87.7476 660.504,87.4142 661.5,87.5 Z"/></g>
<g><path style="opacity:0.006" fill="#d8d8d9" d="M 121.5,88.5 C 121.008,90.8185 120.008,92.8185 118.5,94.5C 118.087,91.6798 119.087,89.6798 121.5,88.5 Z"/></g>
<g><path style="opacity:0.008" fill="#e0e0e1" d="M 117.5,97.5 C 117.125,99.6976 116.458,101.698 115.5,103.5C 115.025,100.918 115.692,98.9179 117.5,97.5 Z"/></g>
<g><path style="opacity:0.043" fill="#e4e4e4" d="M 658.5,94.5 C 657.736,97.0177 656.736,99.351 655.5,101.5C 655.338,99.4727 655.505,97.4727 656,95.5C 656.671,94.7476 657.504,94.4142 658.5,94.5 Z"/></g>
<g><path style="opacity:0.121" fill="#efefef" d="M 733.5,103.5 C 734.451,104.919 734.784,106.585 734.5,108.5C 723.167,108.5 711.833,108.5 700.5,108.5C 700.918,107.778 701.584,107.278 702.5,107C 712.828,106.5 723.161,106.334 733.5,106.5C 733.5,105.5 733.5,104.5 733.5,103.5 Z"/></g>
<g><path style="opacity:0.019" fill="#e7e7e8" d="M 654.5,107.5 C 654.289,116.2 654.623,124.867 655.5,133.5C 654.504,133.586 653.671,133.252 653,132.5C 652.333,124.5 652.333,116.5 653,108.5C 653.383,107.944 653.883,107.611 654.5,107.5 Z"/></g>
<g><path style="opacity:0.172" fill="#f0f0f0" d="M 238.5,84.5 C 233.933,104.537 241.267,118.037 260.5,125C 270.322,128.274 279.989,131.941 289.5,136C 293.037,138.593 294.037,141.76 292.5,145.5C 292.5,144.167 292.5,142.833 292.5,141.5C 291.5,141.5 290.5,141.5 289.5,141.5C 289.5,140.167 289.5,138.833 289.5,137.5C 275.164,133.513 261.164,128.513 247.5,122.5C 245.244,121.579 244.244,119.912 244.5,117.5C 243.5,117.5 242.5,117.5 241.5,117.5C 239.847,113.798 238.013,110.132 236,106.5C 235.333,99.8333 235.333,93.1667 236,86.5C 236.708,85.6195 237.542,84.9528 238.5,84.5 Z"/></g>
<g><path style="opacity:0.996" fill="#434449" d="M 221.5,101.5 C 223.539,109.111 223.872,116.777 222.5,124.5C 222.477,116.817 222.143,109.15 221.5,101.5 Z"/></g>
<g><path style="opacity:0.283" fill="#f1f1f2" d="M 235.5,164.5 C 248.235,172.743 262.235,176.743 277.5,176.5C 293.528,177.113 306.695,171.447 317,159.5C 326.183,140.034 321.683,124.868 303.5,114C 292.412,110.193 281.412,106.193 270.5,102C 263.507,95.4714 263.841,89.4714 271.5,84C 282.357,82.0359 292.691,83.7026 302.5,89C 304.167,89.6667 305.833,89.6667 307.5,89C 311.122,84.2551 314.622,79.4218 318,74.5C 318.749,73.365 318.583,72.365 317.5,71.5C 296.885,60.1543 275.552,58.4876 253.5,66.5C 254.574,65.1154 255.907,63.9487 257.5,63C 277.082,58.7085 296.248,59.8752 315,66.5C 317.452,68.0233 319.786,69.69 322,71.5C 322.497,74.146 322.664,76.8127 322.5,79.5C 321.5,79.5 320.5,79.5 319.5,79.5C 319.5,80.8333 319.5,82.1667 319.5,83.5C 318.5,83.5 317.5,83.5 316.5,83.5C 316.5,84.8333 316.5,86.1667 316.5,87.5C 314.176,87.6615 312.509,88.8282 311.5,91C 304.841,92.0873 298.508,91.254 292.5,88.5C 285.532,87.503 278.532,87.1697 271.5,87.5C 271.5,88.8333 271.5,90.1667 271.5,91.5C 270.5,91.5 269.5,91.5 268.5,91.5C 267.557,96.5641 269.557,99.8975 274.5,101.5C 284.962,104.793 295.295,108.46 305.5,112.5C 312.485,115.572 317.818,120.238 321.5,126.5C 322.452,128.045 322.785,129.712 322.5,131.5C 323.5,131.5 324.5,131.5 325.5,131.5C 325.5,138.833 325.5,146.167 325.5,153.5C 324.5,153.5 323.5,153.5 322.5,153.5C 322.5,156.167 322.5,158.833 322.5,161.5C 321.5,161.5 320.5,161.5 319.5,161.5C 319.5,162.833 319.5,164.167 319.5,165.5C 318.5,165.5 317.5,165.5 316.5,165.5C 316.297,167.638 315.297,169.305 313.5,170.5C 306.326,173.834 298.992,176.668 291.5,179C 276.704,180.598 262.37,179.265 248.5,175C 245.873,172.882 242.873,171.548 239.5,171C 237.747,169.001 236.413,166.835 235.5,164.5 Z"/></g>
<g><path style="opacity:0.004" fill="#e4ecf7" d="M 802.5,120.5 C 799.523,122.467 796.523,124.467 793.5,126.5C 793.511,124.983 794.177,123.816 795.5,123C 797.441,121.097 799.774,120.264 802.5,120.5 Z"/></g>
<g><path style="opacity:0.994" fill="#3268cc" d="M 784.5,154.5 C 784.5,154.167 784.5,153.833 784.5,153.5C 784.5,150.167 784.5,146.833 784.5,143.5C 784.5,142.833 784.5,142.167 784.5,141.5C 785.341,139.188 786.341,136.855 787.5,134.5C 787.5,134.167 787.5,133.833 787.5,133.5C 789.471,131.192 791.471,128.858 793.5,126.5C 796.523,124.467 799.523,122.467 802.5,120.5C 820.214,116.445 833.047,122.445 841,138.5C 844.628,157.752 837.128,170.252 818.5,176C 801.534,177.686 790.201,170.519 784.5,154.5 Z"/></g>
<g><path style="opacity:0.302" fill="#f3f6fb" d="M 784.5,154.5 C 790.201,170.519 801.534,177.686 818.5,176C 837.128,170.252 844.628,157.752 841,138.5C 833.047,122.445 820.214,116.445 802.5,120.5C 802.611,119.883 802.944,119.383 803.5,119C 812.92,116.959 822.086,117.792 831,121.5C 833.44,123.474 835.94,125.141 838.5,126.5C 838.5,127.5 838.5,128.5 838.5,129.5C 839.5,129.5 840.5,129.5 841.5,129.5C 841.5,131.167 841.5,132.833 841.5,134.5C 842.5,134.5 843.5,134.5 844.5,134.5C 844.5,137.5 844.5,140.5 844.5,143.5C 845.5,143.5 846.5,143.5 847.5,143.5C 847.5,147.5 847.5,151.5 847.5,155.5C 846.5,155.5 845.5,155.5 844.5,155.5C 844.663,157.857 844.497,160.19 844,162.5C 842.108,163.617 841.275,165.284 841.5,167.5C 840.5,167.5 839.5,167.5 838.5,167.5C 838.5,168.833 838.5,170.167 838.5,171.5C 835.279,172.641 832.279,174.308 829.5,176.5C 821.113,179.301 812.447,180.134 803.5,179C 799.365,176.074 795.032,173.574 790.5,171.5C 790.5,170.167 790.5,168.833 790.5,167.5C 789.5,167.5 788.5,167.5 787.5,167.5C 787.872,164.978 787.039,162.978 785,161.5C 784.503,159.19 784.337,156.857 784.5,154.5 Z"/></g>
<g><path style="opacity:0.023" fill="#eaeaeb" d="M 115.5,107.5 C 114.2,115.513 114.2,123.513 115.5,131.5C 114.504,131.586 113.671,131.252 113,130.5C 112.333,123.167 112.333,115.833 113,108.5C 113.671,107.748 114.504,107.414 115.5,107.5 Z"/></g>
<g><path style="opacity:0.779" fill="#828589" d="M 220.5,127.5 C 195.167,128.167 169.833,128.833 144.5,129.5C 143.957,129.44 143.624,129.107 143.5,128.5C 169.158,127.5 194.825,127.167 220.5,127.5 Z"/></g>
<g><path style="opacity:0.013" fill="#e1e8f5" d="M 793.5,126.5 C 791.471,128.858 789.471,131.192 787.5,133.5C 787.459,129.5 789.459,127.167 793.5,126.5 Z"/></g>
<g><path style="opacity:0.043" fill="#e6eef9" d="M 787.5,134.5 C 786.341,136.855 785.341,139.188 784.5,141.5C 784.338,139.473 784.505,137.473 785,135.5C 785.671,134.748 786.504,134.414 787.5,134.5 Z"/></g>
<g><path style="opacity:0.273" fill="#eeeeee" d="M 115.5,132.5 C 121.541,156.039 136.541,170.206 160.5,175C 183.364,178.797 202.697,172.464 218.5,156C 213.833,151.333 209.167,146.667 204.5,142C 202.803,141.616 201.137,141.782 199.5,142.5C 199.611,141.883 199.944,141.383 200.5,141C 205.832,139.959 210.332,141.459 214,145.5C 214.483,146.448 214.649,147.448 214.5,148.5C 218.522,149.544 220.522,152.21 220.5,156.5C 220.919,159.747 219.919,162.414 217.5,164.5C 213.5,167.167 209.5,169.833 205.5,172.5C 200.614,174.253 195.614,175.586 190.5,176.5C 178.848,177.666 167.181,177.833 155.5,177C 151.26,175.419 146.926,173.919 142.5,172.5C 138.772,170.07 135.105,167.57 131.5,165C 130.663,163.989 130.33,162.822 130.5,161.5C 128.567,161.271 126.9,160.438 125.5,159C 124.842,157.095 123.675,155.595 122,154.5C 121.506,152.866 121.34,151.199 121.5,149.5C 120.5,149.5 119.5,149.5 118.5,149.5C 118.5,147.5 118.5,145.5 118.5,143.5C 117.5,143.5 116.5,143.5 115.5,143.5C 115.5,139.833 115.5,136.167 115.5,132.5 Z"/></g>
<g><path style="opacity:0.261" fill="#efeff0" d="M 655.5,133.5 C 662.328,157.821 678.328,171.654 703.5,175C 725.082,177.807 743.416,171.474 758.5,156C 753.833,151.333 749.167,146.667 744.5,142C 742.803,141.616 741.137,141.782 739.5,142.5C 739.611,141.883 739.944,141.383 740.5,141C 747.458,139.495 752.124,141.995 754.5,148.5C 755.5,148.5 756.5,148.5 757.5,148.5C 757.461,150.359 758.294,151.692 760,152.5C 760.667,155.5 760.667,158.5 760,161.5C 758.294,162.308 757.461,163.641 757.5,165.5C 753.274,167.312 749.274,169.646 745.5,172.5C 741.5,173.833 737.5,175.167 733.5,176.5C 726.995,177.014 720.662,178.014 714.5,179.5C 708.37,177.852 702.037,177.019 695.5,177C 691.26,175.419 686.926,173.919 682.5,172.5C 678.772,170.07 675.105,167.57 671.5,165C 670.663,163.989 670.33,162.822 670.5,161.5C 668.567,161.271 666.9,160.438 665.5,159C 664.663,157.989 664.33,156.822 664.5,155.5C 663.5,155.5 662.5,155.5 661.5,155.5C 659.847,151.798 658.013,148.132 656,144.5C 655.501,140.848 655.335,137.182 655.5,133.5 Z"/></g>
<g><path style="opacity:0.015" fill="#f6f8fb" d="M 784.5,143.5 C 784.5,146.833 784.5,150.167 784.5,153.5C 782.116,152.575 781.116,150.742 781.5,148C 781.05,145.374 782.05,143.874 784.5,143.5 Z"/></g>
<g><path style="opacity:0.106" fill="#bcbdbe" d="M 199.5,142.5 C 198.198,144.822 196.198,146.155 193.5,146.5C 195.147,144.674 197.147,143.34 199.5,142.5 Z"/></g>
<g><path style="opacity:0.106" fill="#b8b9ba" d="M 739.5,142.5 C 738.198,144.822 736.198,146.155 733.5,146.5C 735.147,144.674 737.147,143.34 739.5,142.5 Z"/></g>
<g><path style="opacity:0.106" fill="#a8a9ab" d="M 193.5,146.5 C 193.027,147.906 192.027,148.573 190.5,148.5C 190.973,147.094 191.973,146.427 193.5,146.5 Z"/></g>
<g><path style="opacity:0.006" fill="#dededf" d="M 292.5,146.5 C 290.61,152.125 286.61,154.791 280.5,154.5C 282.148,153.073 284.148,152.24 286.5,152C 288.39,149.979 290.39,148.146 292.5,146.5 Z"/></g>
<g><path style="opacity:0.106" fill="#9ea0a2" d="M 733.5,146.5 C 733.027,147.906 732.027,148.573 730.5,148.5C 730.973,147.094 731.973,146.427 733.5,146.5 Z"/></g>
<g><path style="opacity:0.008" fill="#e7e8e8" d="M 729.5,148.5 C 728.22,149.931 726.553,150.598 724.5,150.5C 725.635,148.787 727.302,148.12 729.5,148.5 Z"/></g>
<g><path style="opacity:0.012" fill="#e2e3e4" d="M 249.5,145.5 C 259.708,149.122 270.041,152.122 280.5,154.5C 269.196,155.376 258.863,152.376 249.5,145.5 Z"/></g>
<g><path style="opacity:0.018" fill="#dcdcdd" d="M 246.5,146.5 C 243.212,151.786 239.546,156.786 235.5,161.5C 235.343,160.127 235.51,158.793 236,157.5C 238,154.833 240,152.167 242,149.5C 243.615,148.614 245.115,147.614 246.5,146.5 Z"/></g>
<g><path style="opacity:0.321" fill="#e8e8e9" d="M 338.5,63.5 C 338.333,90.5021 338.5,117.502 339,144.5C 344.657,167.809 359.491,178.309 383.5,176C 394.728,174.47 404.228,169.636 412,161.5C 412.038,165.563 412.872,169.397 414.5,173C 423.16,173.5 431.827,173.666 440.5,173.5C 440.5,136.833 440.5,100.167 440.5,63.5C 431.5,63.5 422.5,63.5 413.5,63.5C 420.419,61.8174 427.586,60.8174 435,60.5C 437.528,60.725 440.028,61.0584 442.5,61.5C 442.5,62.8333 442.5,64.1667 442.5,65.5C 443.5,65.5 444.5,65.5 445.5,65.5C 445.5,67.5 445.5,69.5 445.5,71.5C 444.5,71.5 443.5,71.5 442.5,71.5C 442.167,103.507 442.5,135.507 443.5,167.5C 444.5,167.833 445.167,168.5 445.5,169.5C 443.441,170.951 442.441,172.951 442.5,175.5C 434.377,177.531 426.044,178.031 417.5,177C 414.47,175.434 411.97,173.267 410,170.5C 405.299,171.294 401.132,173.294 397.5,176.5C 380.629,181.681 364.629,180.014 349.5,171.5C 349.5,170.167 349.5,168.833 349.5,167.5C 348.5,167.5 347.5,167.5 346.5,167.5C 346.5,166.167 346.5,164.833 346.5,163.5C 345.5,163.5 344.5,163.5 343.5,163.5C 343.5,162.167 343.5,160.833 343.5,159.5C 342.5,159.5 341.5,159.5 340.5,159.5C 340.936,156.636 340.103,154.303 338,152.5C 337.169,122.664 337.336,92.9972 338.5,63.5 Z"/></g>
<g><path style="opacity:0.981" fill="#15171d" d="M 338.5,63.5 C 348.167,63.5 357.833,63.5 367.5,63.5C 367.028,88.8981 367.528,114.231 369,139.5C 372.461,147.235 378.461,151.235 387,151.5C 393.403,151.632 398.903,149.632 403.5,145.5C 404.833,144.833 405.833,143.833 406.5,142.5C 408.262,141.738 409.262,140.404 409.5,138.5C 410.222,138.082 410.722,137.416 411,136.5C 411.5,112.502 411.667,88.5023 411.5,64.5C 412.167,64.1667 412.833,63.8333 413.5,63.5C 422.5,63.5 431.5,63.5 440.5,63.5C 440.5,100.167 440.5,136.833 440.5,173.5C 431.827,173.666 423.16,173.5 414.5,173C 412.872,169.397 412.038,165.563 412,161.5C 404.228,169.636 394.728,174.47 383.5,176C 359.491,178.309 344.657,167.809 339,144.5C 338.5,117.502 338.333,90.5021 338.5,63.5 Z"/></g>
<g><path style="opacity:0.047" fill="#ebebeb" d="M 406.5,142.5 C 405.833,143.833 404.833,144.833 403.5,145.5C 403.5,143.5 404.5,142.5 406.5,142.5 Z"/></g>
<g><path style="opacity:0.006" fill="#e2e2e3" d="M 409.5,138.5 C 409.262,140.404 408.262,141.738 406.5,142.5C 406.468,140.381 407.468,139.048 409.5,138.5 Z"/></g>
<g><path style="opacity:0.089" fill="#ededed" d="M 411.5,64.5 C 411.667,88.5023 411.5,112.502 411,136.5C 410.722,137.416 410.222,138.082 409.5,138.5C 409.333,114.164 409.5,89.8311 410,65.5C 410.383,64.944 410.883,64.6107 411.5,64.5 Z"/></g>
<g><path style="opacity:0.018" fill="#e7e7e7" d="M 463.5,166.5 C 463.5,168.5 463.5,170.5 463.5,172.5C 462.307,172.03 461.64,171.03 461.5,169.5C 461.64,167.97 462.307,166.97 463.5,166.5 Z"/></g>
</svg>
